<!-- icon666.com - MILLIONS vector ICONS FREE --><svg viewBox="0 0 256 256" xmlns="http://www.w3.org/2000/svg"><g id="Icons"><g><path d="m43.331 228.378c-7.022 0-12.714-5.692-12.714-12.714v-23.537h32.681l-7.744 27.038c-1.562 5.454-6.549 9.213-12.223 9.213z" fill="#72c2e9"></path><path d="m30.62 192.128h32.68l-3.27 11.42h-29.41z" fill="#4ba5c8"></path><path d="m225.383 192.126v23.537c0 7.022-5.692 12.714-12.714 12.714-5.674 0-10.66-3.759-12.223-9.213l-7.744-27.038z" fill="#72c2e9"></path><path d="m225.38 192.128v11.42h-29.41l-3.27-11.42z" fill="#4ba5c8"></path><path d="m250.54 37.622v133.8h-245.08v-133.8c0-5.52 4.48-10 10-10h225.08c5.52 0 10 4.48 10 10z" fill="#efefef"></path><path d="m250.54 37.618v133.8h-245.08v-133.8c0-5.52 4.48-10 10-10h225.08c5.52 0 10 4.48 10 10z" fill="#efefef"></path><path d="m206.42 132.088c2.05 5.36-.06 11.37-5 14.28l-7.78 4.58c-4.86 2.86-8.44 7.64-9.84 13.1l-1.88 7.37h-107.84l-1.88-7.37c-1.4-5.46-4.98-10.24-9.84-13.1l-7.78-4.58c-4.94-2.91-7.05-8.92-5-14.28l3.82-9.98c1.87-4.91 1.87-10.32 0-15.23l-3.82-9.97c-2.05-5.37.06-11.37 5-14.29l7.78-4.58c4.86-2.86 8.44-7.63 9.84-13.09l2.67-10.47c1.48-5.79 7.06-9.51 12.93-8.71 8.72 1.18 9.13 1.3 11.01 1.3 9.79 0 14.29-5.49 21.27-11.89 4.48-4.1 11.35-4.1 15.84 0 6.98 6.4 11.5 11.89 21.27 11.89 1.9 0 2.36-.13 11.01-1.3 5.87-.8 11.44 2.92 12.93 8.71l2.67 10.47c1.4 5.46 4.98 10.23 9.84 13.09l7.78 4.58c4.94 2.92 7.05 8.92 5 14.29l-3.82 9.97c-1.87 4.91-1.87 10.32 0 15.23z" fill="#afafaf"></path><path d="m131.189 40.343 6.863 6.285c6.201 5.68 14.605 8.311 22.939 7.182l8.146-1.104c2.375-.322 4.615 1.187 5.209 3.509l2.677 10.465c1.868 7.304 6.57 13.562 13.065 17.389l7.777 4.583c1.985 1.17 2.836 3.601 2.014 5.754l-3.812 9.977c-2.488 6.512-2.488 13.713 0 20.226l3.812 9.977c.822 2.152-.029 4.584-2.014 5.754l-7.777 4.583c-6.495 3.827-11.197 10.085-13.065 17.389l-2.677 10.465c-.594 2.322-2.833 3.831-5.209 3.509l-8.146-1.104c-8.333-1.129-16.737 1.502-22.939 7.182l-6.863 6.285c-1.805 1.653-4.574 1.653-6.378 0l-6.863-6.285c-6.201-5.68-14.605-8.311-22.939-7.182l-8.146 1.104c-2.375.322-4.615-1.187-5.209-3.509l-2.677-10.465c-1.868-7.304-6.57-13.562-13.065-17.389l-7.777-4.583c-1.985-1.17-2.836-3.601-2.014-5.754l3.812-9.977c2.488-6.512 2.488-13.713 0-20.226l-3.812-9.977c-.822-2.152.029-4.584 2.014-5.754l7.777-4.583c6.495-3.827 11.197-10.085 13.065-17.389l2.677-10.465c.594-2.322 2.833-3.831 5.209-3.509l8.146 1.104c8.333 1.129 16.737-1.502 22.939-7.182l6.863-6.285c1.805-1.653 4.573-1.653 6.378 0z" fill="#fc5d3d"></path><path d="m162.75 154.658c2.02 4.55 3.57 9.74 4.6 15.53.38 2.11-.23 4.14-1.47 5.66l-4.89-.67c-6.06-.82-12.16.35-17.42 3.24h-31.14c-8.786-4.827-15.811-3.46-22.31-2.57-1.24-1.51-1.85-3.54-1.47-5.66 1.03-5.79 2.58-10.98 4.6-15.53-15.59-5.05-22.82-16.51-22.82-33.16 0-31.74 25.83-57.57 57.57-57.57s57.57 25.83 57.57 57.57c0 16.65-7.23 28.11-22.82 33.16z" fill="#b25035"></path><path d="m160.46 171.418h-64.92c2.85-15.94 11.2-33.13 32.46-33.13s29.61 17.19 32.46 33.13z" fill="#f0c020"></path><path d="m155.82 156.408c-8.46 1.61-18 1.79-27.82 1.79s-19.36-.18-27.82-1.79c4.84-10.13 13.33-18.12 27.82-18.12s22.98 7.99 27.82 18.12z" fill="#e8a61e"></path><path d="m128 70.932c-27.928 0-50.567 22.64-50.567 50.567s22.64 29.696 50.567 29.696 50.567-1.768 50.567-29.696-22.639-50.567-50.567-50.567z" fill="#f0c020"></path><circle cx="105.285" cy="107.009" fill="#efefef" r="7.487"></circle><circle cx="150.715" cy="107.009" fill="#efefef" r="7.487"></circle><path d="m120.117 123.132c0-4.354 3.53-5.338 7.883-5.338s7.883.984 7.883 5.338-3.53 7.883-7.883 7.883-7.883-3.529-7.883-7.883z" fill="#878787"></path><path d="m250.54 171.422v15.13c0 5.52-4.48 10-10 10h-225.08c-5.52 0-10-4.48-10-10v-15.13z" fill="#72c2e9"></path><path d="m250.54 171.422v15.13c0 5.52-4.48 10-10 10h-225.08c-5.52 0-10-4.48-10-10v-15.13z" fill="#72c2e9"></path><path d="m46.981 65.438c-3.729-1.228-6.641-2.022-8.591-10.421-.635-2.737-4.548-2.73-5.181 0-1.907 8.213-4.566 9.092-8.591 10.422-2.424.801-2.43 4.248 0 5.051 6.686 2.209 7.444 5.476 8.591 10.421.637 2.743 4.545 2.742 5.182 0 1.905-8.212 4.709-9.139 8.591-10.421 2.423-.802 2.429-4.249-.001-5.052z"></path><path d="m39.784 67.993c-1.47 1.03-2.79 2.42-3.93 4.43-.94-1.58-2.25-3.08-4.17-4.4 1.55-1.06 2.94-2.5 4.13-4.64 1.2 2.16 2.56 3.6 3.97 4.61z" fill="#ffc000"></path><path d="m231.383 65.438c-3.729-1.228-6.641-2.022-8.591-10.421-.635-2.737-4.548-2.73-5.181 0-1.907 8.213-4.566 9.092-8.591 10.422-2.424.801-2.43 4.248 0 5.051 6.686 2.209 7.444 5.476 8.591 10.421.637 2.743 4.545 2.742 5.182 0 1.905-8.212 4.709-9.139 8.591-10.421 2.423-.802 2.428-4.249-.001-5.052z"></path><path d="m224.186 67.993c-1.47 1.03-2.79 2.42-3.93 4.43-.94-1.58-2.25-3.08-4.17-4.4 1.55-1.06 2.94-2.5 4.13-4.64 1.2 2.16 2.56 3.6 3.97 4.61z" fill="#ffc000"></path><path d="m15.46 163.918c-1.381 0-2.5-1.119-2.5-2.5v-3c0-1.381 1.119-2.5 2.5-2.5s2.5 1.119 2.5 2.5v3c0 1.381-1.119 2.5-2.5 2.5zm0-13c-1.381 0-2.5-1.119-2.5-2.5v-110.8c0-1.381 1.119-2.5 2.5-2.5s2.5 1.119 2.5 2.5v110.8c0 1.381-1.119 2.5-2.5 2.5z" fill="#fff"></path><path d="m240.54 163.918c-1.381 0-2.5-1.119-2.5-2.5v-110.8c0-1.381 1.119-2.5 2.5-2.5s2.5 1.119 2.5 2.5v110.8c0 1.381-1.119 2.5-2.5 2.5zm0-120.8c-1.381 0-2.5-1.119-2.5-2.5v-3c0-1.381 1.119-2.5 2.5-2.5s2.5 1.119 2.5 2.5v3c0 1.381-1.119 2.5-2.5 2.5z" fill="#fff"></path><path d="m175.21 137.168c-1.07-.79-2.71-.53-3.49.54-.81 1.11-.57 2.68.55 3.49 1.089.812 2.676.569 3.49-.54v-.01c.81-1.11.56-2.67-.55-3.48z"></path><path d="m105.285 97.022c-5.507 0-9.987 4.48-9.987 9.987s4.48 9.987 9.987 9.987 9.987-4.48 9.987-9.987-4.48-9.987-9.987-9.987zm0 14.974c-2.75 0-4.987-2.237-4.987-4.987s2.237-4.987 4.987-4.987 4.987 2.237 4.987 4.987-2.237 4.987-4.987 4.987z"></path><path d="m150.715 97.022c-5.507 0-9.987 4.48-9.987 9.987s4.48 9.987 9.987 9.987 9.987-4.48 9.987-9.987-4.48-9.987-9.987-9.987zm0 14.974c-2.75 0-4.987-2.237-4.987-4.987s2.237-4.987 4.987-4.987 4.987 2.237 4.987 4.987-2.237 4.987-4.987 4.987z"></path><path d="m139.814 134.383c-1.381 0-2.5 1.119-2.5 2.5 0 1.857-1.511 3.368-3.447 3.368-1.857 0-3.368-1.511-3.368-3.368v-3.684c4.52-1.124 7.883-5.205 7.883-10.067 0-3.576-1.801-7.838-10.383-7.838s-10.383 4.262-10.383 7.838c0 4.862 3.364 8.943 7.883 10.067v3.684c0 1.857-1.511 3.368-3.447 3.368-1.856 0-3.367-1.511-3.367-3.368 0-1.381-1.119-2.5-2.5-2.5s-2.5 1.119-2.5 2.5c0 4.614 3.753 8.368 8.447 8.368 2.287 0 4.361-.924 5.873-2.416 1.522 1.492 3.616 2.416 5.942 2.416 4.614 0 8.367-3.754 8.367-8.368 0-1.381-1.119-2.5-2.5-2.5zm-17.197-11.251c0-1.198 0-2.838 5.383-2.838s5.383 1.64 5.383 2.838c0 2.969-2.415 5.384-5.383 5.384s-5.383-2.415-5.383-5.384z"></path><path d="m240.54 25.122h-225.08c-6.89 0-12.495 5.603-12.5 12.492v.004 42.8c0 1.38 1.12 2.5 2.5 2.5s2.5-1.12 2.5-2.5v-42.796c0-4.136 3.365-7.5 7.5-7.5h225.08c4.135 0 7.5 3.364 7.5 7.5v131.3h-70.131l1.533-5.993c1.694-6.613 6.038-12.393 11.917-15.857l7.768-4.579c3.05-1.793 4.349-5.492 3.088-8.799l-3.818-9.977c-2.265-5.944-2.265-12.497-.002-18.445l3.821-9.973c1.262-3.309-.037-7.012-3.086-8.805l-7.771-4.58c-5.969-3.517-10.201-9.147-11.917-15.856l-2.679-10.455c-.903-3.553-4.328-5.864-7.957-5.372l-8.151 1.1c-7.626 1.035-15.247-1.352-20.915-6.545l-6.865-6.295c-2.779-2.533-6.97-2.533-9.753.005l-6.859 6.29c-5.67 5.194-13.292 7.583-20.917 6.546l-8.15-1.1c-3.637-.49-7.054 1.818-7.956 5.367l-2.68 10.461c-1.716 6.708-5.948 12.339-11.917 15.855l-7.768 4.579c-3.052 1.794-4.351 5.498-3.087 8.81l3.817 9.964c2.265 5.955 2.265 12.507.002 18.448l-3.821 9.982c-1.26 3.304.039 7.003 3.086 8.795l7.771 4.58c5.879 3.464 10.223 9.244 11.917 15.856l1.533 5.994h-70.133v-68.503c0-1.38-1.12-2.5-2.5-2.5s-2.5 1.12-2.5 2.5v86.134c0 6.893 5.607 12.5 12.5 12.5.013 0 .026-.004.039-.004h12.621v16.62c0 8.387 6.823 15.21 15.21 15.21 6.753 0 12.766-4.533 14.623-11.021l5.961-20.809h32.626c1.38 0 2.5-1.12 2.5-2.5 0-1.37-1.12-2.5-2.5-2.5h-81.08c-.009 0-.017.002-.026.003-4.123-.014-7.474-3.372-7.474-7.499v-12.63h240.08v12.63c0 4.127-3.351 7.485-7.474 7.499-.009 0-.017-.003-.026-.003h-124c-1.38 0-2.5 1.13-2.5 2.5 0 1.38 1.12 2.5 2.5 2.5h75.546l5.961 20.809c1.861 6.489 7.874 11.021 14.623 11.021 8.387 0 15.21-6.823 15.21-15.21v-16.62h12.621c.013 0 .025.004.039.004 6.893 0 12.5-5.607 12.5-12.5 0-11.897 0-127.382 0-148.93 0-6.895-5.607-12.502-12.5-12.502zm-187.394 193.358c-1.247 4.356-5.283 7.398-9.816 7.398-5.63 0-10.21-4.58-10.21-10.21v-16.62h25.593zm28.256-56.792c-2.022-7.892-7.206-14.789-14.222-18.923l-7.772-4.582c-.938-.552-1.338-1.688-.952-2.701l3.821-9.983c2.701-7.091 2.701-14.907-.002-22.015l-3.818-9.966c-.389-1.02.011-2.161.954-2.715l7.77-4.58c7.124-4.197 12.174-10.917 14.223-18.923l2.681-10.465c.277-1.09 1.325-1.8 2.442-1.648l8.148 1.1c9.099 1.234 18.198-1.614 24.966-7.815l6.854-6.285c.859-.783 2.153-.783 3.006-.005l6.86 6.291c6.768 6.2 15.866 9.049 24.964 7.814l8.15-1.1c1.109-.153 2.165.558 2.443 1.653l2.68 10.459c2.048 8.006 7.099 14.727 14.222 18.924l7.772 4.582c.94.553 1.34 1.694.953 2.71l-3.822 9.976c-2.701 7.102-2.701 14.917.002 22.012l3.819 9.978c.387 1.015-.013 2.152-.954 2.705l-7.77 4.58c-7.017 4.135-12.201 11.032-14.223 18.924l-1.85 7.233h-10.241c-1.375-6.656-3.512-12.414-6.375-17.19 4.139-.867 7.931-2.109 11.288-3.914 1.21-.66 1.66-2.18 1.01-3.39-.653-1.202-2.171-1.676-3.39-1-9.571 5.268-25.938 5.27-37.011 5.27-.01 0-.019-.003-.029-.003-28.145 0-48.067-1.951-48.067-27.196 0-26.504 21.563-48.067 48.067-48.067s48.067 21.563 48.067 48.067c0 .007.002.013.002.02-.001 2.942-.271 5.645-.81 8.04-.3 1.35.55 2.69 1.9 2.99 1.366.303 2.691-.584 2.98-1.9.668-2.974.958-6.362.927-9.183-.017-29.247-23.815-53.035-53.065-53.035-29.261 0-53.067 23.806-53.067 53.067 0 19.66 10.977 27.305 24.904 30.286-2.848 4.765-4.974 10.504-6.344 17.136h-10.241zm46.569-7.993c.01 0 .019.003.029.003 8.205-.021 15.883-.168 22.778-1.068 2.961 4.354 5.192 9.807 6.631 16.291h-58.819c1.431-6.447 3.644-11.875 6.579-16.216 7.447.988 15.406.99 22.802.99zm94.909 61.973c0 5.63-4.58 10.21-10.21 10.21-4.531 0-8.567-3.042-9.816-7.398l-5.567-19.432h25.593z"></path><circle cx="5.46" cy="90.418" r="2.5"></circle><circle cx="106.54" cy="196.548" r="2.5"></circle><path d="m118.658 186.487h18.684c1.381 0 2.5-1.119 2.5-2.5s-1.119-2.5-2.5-2.5h-18.684c-1.381 0-2.5 1.119-2.5 2.5s1.119 2.5 2.5 2.5z"></path></g></g></svg>