<!-- icon666.com - MILLIONS vector ICONS FREE --><svg id="Layer_1" viewBox="0 0 100 100" xmlns="http://www.w3.org/2000/svg"><g><path d="m50 92c-23.159 0-42-18.841-42-42s18.841-42 42-42 42 18.841 42 42-18.841 42-42 42zm0-80c-20.953 0-38 17.047-38 38s17.047 38 38 38 38-17.047 38-38-17.047-38-38-38z"></path><path d="m25.511 67.001c-1.14 0-2.267-.297-3.259-.857-2.071-1.176-3.355-3.382-3.355-5.759v-20.619c0-2.377 1.284-4.583 3.353-5.757 2.041-1.154 4.661-1.119 6.665.083l17.183 10.311c1.981 1.188 3.212 3.361 3.212 5.672 0 2.312-1.23 4.486-3.212 5.674l-17.184 10.31c-1.027.616-2.204.942-3.403.942zm0-29.852c-.451 0-.897.117-1.29.34-.815.463-1.324 1.336-1.324 2.276v20.619c0 .94.509 1.813 1.327 2.278.799.452 1.84.44 2.632-.034l17.184-10.31c.782-.47 1.269-1.329 1.269-2.244 0-.913-.486-1.772-1.269-2.242l-17.185-10.311c-.405-.243-.871-.372-1.344-.372z"></path><path d="m59.615 67.001c-1.14 0-2.268-.297-3.26-.857-2.071-1.176-3.355-3.382-3.355-5.759v-20.619c0-2.377 1.284-4.583 3.353-5.757 2.042-1.154 4.663-1.119 6.667.083l17.182 10.311c1.981 1.188 3.213 3.362 3.213 5.672 0 2.312-1.231 4.485-3.214 5.674l-17.181 10.31c-1.028.616-2.206.942-3.405.942zm0-29.852c-.451 0-.898.117-1.291.34-.815.463-1.324 1.336-1.324 2.277v20.619c0 .94.509 1.813 1.327 2.278.799.452 1.844.439 2.634-.034l17.182-10.311c.784-.471 1.271-1.33 1.271-2.244 0-.913-.487-1.771-1.271-2.242l-17.182-10.311c-.405-.243-.871-.372-1.346-.372z"></path></g></svg>