<!-- icon666.com - MILLIONS vector ICONS FREE --><svg id="Layer_1" viewBox="0 0 100 100" xmlns="http://www.w3.org/2000/svg"><g><path d="m66.783 69.5c-1.755 0-3.403-.683-4.642-1.923-1.238-1.236-1.921-2.884-1.921-4.638v-25.877c0-1.755.683-3.403 1.922-4.642 1.219-1.22 2.91-1.921 4.639-1.921 1.753 0 3.401.683 4.641 1.922 1.24 1.238 1.923 2.887 1.923 4.641v25.877c0 1.753-.683 3.4-1.923 4.64-1.238 1.238-2.886 1.921-4.639 1.921zm0-35c-.676 0-1.336.273-1.812.749-.485.484-.751 1.128-.751 1.813v25.877c0 .685.266 1.327.75 1.81.477.478 1.137.751 1.812.751h.001c.685 0 1.328-.267 1.812-.75.484-.484.751-1.127.751-1.811v-25.877c0-.685-.267-1.328-.75-1.812-.485-.483-1.128-.75-1.813-.75z"></path><path d="m33.654 68.169c-1.208 0-2.4-.314-3.45-.91-2.189-1.237-3.55-3.571-3.55-6.089v-22.338c0-2.519 1.361-4.854 3.553-6.093 2.146-1.217 4.925-1.184 7.048.088l18.616 11.171c2.096 1.258 3.398 3.558 3.398 6.002 0 2.447-1.303 4.747-3.4 6.003l-18.612 11.169c-1.09.652-2.335.997-3.603.997zm0-32.338c-.517 0-1.027.135-1.476.389-.941.532-1.524 1.532-1.524 2.612v22.338c0 1.078.583 2.078 1.521 2.608.926.524 2.112.51 3.024-.037l18.613-11.169c.899-.538 1.457-1.523 1.457-2.572 0-1.047-.558-2.033-1.457-2.572l-18.614-11.17c-.466-.279-1-.427-1.544-.427z"></path><path d="m50 92c-23.159 0-42-18.841-42-42s18.841-42 42-42 42 18.841 42 42-18.841 42-42 42zm0-80c-20.953 0-38 17.047-38 38s17.047 38 38 38 38-17.047 38-38-17.047-38-38-38z"></path></g></svg>