<!-- icon666.com - MILLIONS vector ICONS FREE --><svg id="Layer_1" viewBox="0 0 100 100" xmlns="http://www.w3.org/2000/svg"><g><path d="m50 92c-23.159 0-42-18.841-42-42s18.841-42 42-42 42 18.841 42 42-18.841 42-42 42zm0-80c-20.953 0-38 17.047-38 38s17.047 38 38 38 38-17.047 38-38-17.047-38-38-38z"></path><path d="m43.334 68.169c-1.208 0-2.4-.314-3.45-.909-2.189-1.238-3.55-3.572-3.55-6.09v-22.338c0-2.519 1.361-4.854 3.551-6.093 2.149-1.217 4.926-1.185 7.049.089l18.615 11.17c2.097 1.26 3.399 3.559 3.399 6.002 0 2.445-1.303 4.746-3.401 6.003l-18.611 11.169c-1.089.652-2.334.997-3.602.997zm0-32.338c-.517 0-1.028.135-1.478.39-.939.531-1.522 1.531-1.522 2.611v22.338c0 1.078.583 2.078 1.521 2.608.924.524 2.113.508 3.023-.036l18.613-11.17c.9-.539 1.458-1.524 1.458-2.572 0-1.047-.559-2.032-1.458-2.572l-18.614-11.17c-.465-.279-1-.427-1.543-.427z"></path></g></svg>